<?xml version="1.0" encoding="UTF-8"?>
<svg id="Layer_2" data-name="Layer 2" xmlns="http://www.w3.org/2000/svg" viewBox="0 0 300 300">
  <defs>
    <style>
      .cls-1 {
        fill: #000;
      }

      .cls-1, .cls-2, .cls-3 {
        stroke-width: 0px;
      }

      .cls-2 {
        fill: #e6e21a;
      }

      .cls-3 {
        fill: #004741;
      }
    </style>
  </defs>
  <g id="Layer_1-2" data-name="Layer 1">
    <g>
      <path class="cls-1" d="M150.35,148.67l-1.22,2.66c.59-.88,1.16-1.77,1.73-2.66h-.51Z"/>
      <polygon class="cls-1" points="152.44 149.44 151.92 150.56 147.56 150.56 152.44 149.44"/>
      <rect class="cls-3" width="300" height="300" rx="30.44" ry="30.44"/>
      <path class="cls-2" d="M193.98,176.27h30.99c.72,0,1.2.75.9,1.41h0s-33.02,72.32-33.02,72.32c-.34.73-1.36.78-1.76.08l-17.97-31.12-2.62-4.54c-.2-.35-.61-.54-1.01-.48-.83.13-1.67.25-2.51.35-.37.05-.75.09-1.12.13-2.03.23-4.08.37-6.15.45-.98.03-1.95.05-2.94.05-7.55,0-14.86-1.01-21.8-2.9-2.08-.57-4.14-1.22-6.15-1.94-.37-.13-.75-.26-1.12-.41-2.09-.79-4.14-1.65-6.15-2.6-28.08-13.23-47.52-41.8-47.52-74.9s19.44-61.67,47.52-74.9c2-.95,4.06-1.81,6.15-2.6.37-.14.75-.28,1.12-.41,2.01-.73,4.06-1.37,6.15-1.94,6.95-1.89,14.25-2.9,21.8-2.9.98,0,1.96.02,2.94.05,2.07.07,4.12.22,6.15.44.37.04.75.09,1.12.14,2.07.25,4.12.58,6.15.99,21.93,4.39,40.74,17.47,52.68,35.49.43.66-.05,1.53-.83,1.53h-30.99c-.23,0-.45-.08-.63-.23-5.87-4.86-12.73-8.56-20.22-10.78-2.01-.6-4.06-1.08-6.15-1.46-.37-.07-.75-.13-1.12-.19-2.02-.32-4.06-.53-6.15-.63-.97-.06-1.95-.08-2.94-.08-7.72,0-15.08,1.52-21.8,4.28-2.11.86-4.17,1.85-6.15,2.96-.37.2-.75.42-1.12.64-2.14,1.26-4.19,2.65-6.15,4.17-13.54,10.51-22.26,26.95-22.26,45.42s8.72,34.91,22.26,45.42c1.95,1.52,4.01,2.91,6.15,4.17.37.22.75.44,1.12.64,1.98,1.11,4.03,2.1,6.15,2.96,6.72,2.77,14.08,4.28,21.8,4.28.98,0,1.97-.02,2.94-.08,2.08-.1,4.13-.31,6.15-.63.37-.06.75-.12,1.12-.19,2.09-.37,4.14-.86,6.15-1.46,7.49-2.22,14.36-5.93,20.23-10.79.18-.15.4-.23.63-.23Z"/>
    </g>
  </g>
</svg>