<svg width="24" height="24" viewBox="0 0 24 24" fill="none" xmlns="http://www.w3.org/2000/svg">
<rect width="24" height="24" rx="12" fill="#FAFAFA"/>
<g clip-path="url(#clip0_508_4161)">
<path d="M18 12.2619C18 11.8458 17.9663 11.4274 17.8943 11.0181H12.1204V13.3753H15.4268C15.2896 14.1356 14.8488 14.8081 14.2032 15.2355V16.765H16.1758C17.3342 15.6989 18 14.1243 18 12.2619Z" fill="#4285F4"/>
<path d="M12.1203 18.2429C13.7713 18.2429 15.1636 17.7008 16.178 16.7651L14.2054 15.2356C13.6566 15.609 12.9481 15.8204 12.1226 15.8204C10.5256 15.8204 9.17149 14.743 8.68564 13.2944H6.65002V14.8712C7.6892 16.9383 9.80579 18.2429 12.1203 18.2429Z" fill="#34A853"/>
<path d="M8.68344 13.2945C8.42702 12.5343 8.42702 11.711 8.68344 10.9508V9.37402H6.65007C5.78184 11.1037 5.78184 13.1416 6.65007 14.8713L8.68344 13.2945Z" fill="#FBBC04"/>
<path d="M12.1203 8.42242C12.993 8.40892 13.8365 8.73732 14.4686 9.34013L16.2163 7.59243C15.1096 6.55325 13.6408 5.98193 12.1203 5.99992C9.80579 5.99992 7.6892 7.30452 6.65002 9.37387L8.68339 10.9506C9.16699 9.49983 10.5233 8.42242 12.1203 8.42242Z" fill="#EA4335"/>
</g>
<defs>
<clipPath id="clip0_508_4161">
<rect width="12" height="12.2429" fill="white" transform="translate(6 6)"/>
</clipPath>
</defs>
</svg>
